<?xml version="1.0" encoding="UTF-8"?>
<svg width="420px" height="137px" viewBox="0 0 420 137" version="1.1" xmlns="http://www.w3.org/2000/svg" xmlns:xlink="http://www.w3.org/1999/xlink">
    <!-- Generator: Sketch 51.3 (57544) - http://www.bohemiancoding.com/sketch -->
    <title>drop</title>
    <desc>Created with Sketch.</desc>
    <defs></defs>
    <g id="drop" stroke="none" stroke-width="1" fill="none" fill-rule="evenodd">
        <path d="M9.7913,71.471 C9.7913,68.87728 7.68872,66.7747 5.095,66.7747 C2.50128,66.7747 0.3987,68.87728 0.3987,71.471 C0.3987,74.06472 2.50128,76.1673 5.095,76.1673 C7.68872,76.1673 9.7913,74.06472 9.7913,71.471 Z" id="Stroke-1" stroke="#000000" stroke-width="0.79701"></path>
        <path d="M9.7913,41.3558 C9.7913,38.76206 7.68872,36.65948 5.095,36.65948 C2.50128,36.65948 0.3987,38.76206 0.3987,41.3558 C0.3987,43.94953 2.50128,46.05212 5.095,46.05212 C7.68872,46.05212 9.7913,43.94953 9.7913,41.3558 Z" id="Stroke-2" stroke="#000000" stroke-width="0.79701"></path>
        <path d="M9.7913,11.24059 C9.7913,8.64686 7.68872,6.54427 5.095,6.54427 C2.50128,6.54427 0.3987,8.64686 0.3987,11.24059 C0.3987,13.83431 2.50128,15.9369 5.095,15.9369 C7.68872,15.9369 9.7913,13.83431 9.7913,11.24059 Z" id="Stroke-3" stroke="#000000" stroke-width="0.79701"></path>
        <path d="M9.7913,101.5862 C9.7913,98.99247 7.68872,96.88988 5.095,96.88988 C2.50128,96.88988 0.3987,98.99247 0.3987,101.5862 C0.3987,104.17994 2.50128,106.28252 5.095,106.28252 C7.68872,106.28252 9.7913,104.17994 9.7913,101.5862 Z" id="Stroke-4" stroke="#000000" stroke-width="0.79701"></path>
        <path d="M9.7913,131.70141 C9.7913,129.10769 7.68872,127.0051 5.095,127.0051 C2.50128,127.0051 0.3987,129.10769 0.3987,131.70141 C0.3987,134.29514 2.50128,136.39773 5.095,136.39773 C7.68872,136.39773 9.7913,134.29514 9.7913,131.70141 Z" id="Stroke-5" stroke="#000000" stroke-width="0.79701"></path>
        <path d="M59.83209,71.471 C59.83209,68.87728 57.7295,66.7747 55.13577,66.7747 C52.54204,66.7747 50.43945,68.87728 50.43945,71.471 C50.43945,74.06472 52.54204,76.1673 55.13577,76.1673 C57.7295,76.1673 59.83209,74.06472 59.83209,71.471 Z" id="Stroke-6" stroke="#000000" stroke-width="0.79701"></path>
        <path d="M59.83209,41.3558 C59.83209,38.76206 57.7295,36.65948 55.13577,36.65948 C52.54204,36.65948 50.43945,38.76206 50.43945,41.3558 C50.43945,43.94953 52.54204,46.05212 55.13577,46.05212 C57.7295,46.05212 59.83209,43.94953 59.83209,41.3558 Z" id="Stroke-7" stroke="#000000" stroke-width="0.79701"></path>
        <path d="M59.83209,11.24059 C59.83209,8.64686 57.7295,6.54427 55.13577,6.54427 C52.54204,6.54427 50.43945,8.64686 50.43945,11.24059 C50.43945,13.83431 52.54204,15.9369 55.13577,15.9369 C57.7295,15.9369 59.83209,13.83431 59.83209,11.24059 Z" id="Stroke-8" stroke="#000000" stroke-width="0.79701"></path>
        <path d="M59.83209,101.5862 C59.83209,98.99247 57.7295,96.88988 55.13577,96.88988 C52.54204,96.88988 50.43945,98.99247 50.43945,101.5862 C50.43945,104.17994 52.54204,106.28252 55.13577,106.28252 C57.7295,106.28252 59.83209,104.17994 59.83209,101.5862 Z" id="Stroke-9" stroke="#000000" stroke-width="0.79701"></path>
        <path d="M59.83209,131.70141 C59.83209,129.10769 57.7295,127.0051 55.13577,127.0051 C52.54204,127.0051 50.43945,129.10769 50.43945,131.70141 C50.43945,134.29514 52.54204,136.39773 55.13577,136.39773 C57.7295,136.39773 59.83209,134.29514 59.83209,131.70141 Z" id="Stroke-10" stroke="#000000" stroke-width="0.79701"></path>
        <path d="M109.87286,71.471 C109.87286,68.87728 107.77028,66.7747 105.17654,66.7747 C102.58282,66.7747 100.48024,68.87728 100.48024,71.471 C100.48024,74.06472 102.58282,76.1673 105.17654,76.1673 C107.77028,76.1673 109.87286,74.06472 109.87286,71.471 Z" id="Stroke-11" stroke="#000000" stroke-width="0.79701"></path>
        <path d="M109.87286,41.3558 C109.87286,38.76206 107.77028,36.65948 105.17654,36.65948 C102.58282,36.65948 100.48024,38.76206 100.48024,41.3558 C100.48024,43.94953 102.58282,46.05212 105.17654,46.05212 C107.77028,46.05212 109.87286,43.94953 109.87286,41.3558 Z" id="Stroke-12" stroke="#000000" stroke-width="0.79701"></path>
        <path d="M109.87286,11.24059 C109.87286,8.64686 107.77028,6.54427 105.17654,6.54427 C102.58282,6.54427 100.48024,8.64686 100.48024,11.24059 C100.48024,13.83431 102.58282,15.9369 105.17654,15.9369 C107.77028,15.9369 109.87286,13.83431 109.87286,11.24059 Z" id="Stroke-13" stroke="#000000" stroke-width="0.79701"></path>
        <path d="M109.87286,101.5862 C109.87286,98.99247 107.77028,96.88988 105.17654,96.88988 C102.58282,96.88988 100.48024,98.99247 100.48024,101.5862 C100.48024,104.17994 102.58282,106.28252 105.17654,106.28252 C107.77028,106.28252 109.87286,104.17994 109.87286,101.5862 Z" id="Stroke-14" stroke="#000000" stroke-width="0.79701"></path>
        <path d="M109.87286,131.70141 C109.87286,129.10769 107.77028,127.0051 105.17654,127.0051 C102.58282,127.0051 100.48024,129.10769 100.48024,131.70141 C100.48024,134.29514 102.58282,136.39773 105.17654,136.39773 C107.77028,136.39773 109.87286,134.29514 109.87286,131.70141 Z" id="Stroke-15" stroke="#000000" stroke-width="0.79701"></path>
        <path d="M159.91365,41.3558 C159.91365,38.76206 157.81106,36.65948 155.21733,36.65948 C152.6236,36.65948 150.52101,38.76206 150.52101,41.3558 C150.52101,43.94953 152.6236,46.05212 155.21733,46.05212 C157.81106,46.05212 159.91365,43.94953 159.91365,41.3558 Z" id="Stroke-16" stroke="#000000" stroke-width="0.79701"></path>
        <path d="M159.91365,101.5862 C159.91365,98.99247 157.81106,96.88988 155.21733,96.88988 C152.6236,96.88988 150.52101,98.99247 150.52101,101.5862 C150.52101,104.17994 152.6236,106.28252 155.21733,106.28252 C157.81106,106.28252 159.91365,104.17994 159.91365,101.5862 Z" id="Stroke-17" stroke="#000000" stroke-width="0.79701"></path>
        <g id="Group-20" transform="translate(10.000000, 68.795000)">
            <path d="M0.18982,2.676 L37.45068,2.676" id="Stroke-18" stroke="#000000" stroke-width="0.79701"></path>
            <polyline id="Fill-19" fill="#000000" points="40.04094 2.676 35.89653 0.6038 37.45068 2.676 35.89653 4.7482"></polyline>
        </g>
        <g id="Group-23" transform="translate(9.000000, 43.795000)">
            <path d="M0.46379,25.04674 L39.54584,1.5267" id="Stroke-21" stroke="#000000" stroke-width="0.79701"></path>
            <polyline id="Fill-22" fill="#000000" points="41.766988 0.189996327 37.1437976 0.551807608 39.54584 1.5267 39.2825152 4.10563061"></polyline>
        </g>
        <g id="Group-26" transform="translate(8.000000, 14.795000)">
            <path d="M0.35202,52.75564 L42.22273,2.35912" id="Stroke-24" stroke="#000000" stroke-width="0.79701"></path>
            <polyline id="Fill-25" fill="#000000" points="43.8786732 0.365960833 39.6346147 2.23028542 42.22272 2.35914 42.8236891 4.87980034"></polyline>
        </g>
        <g id="Group-29" transform="translate(9.000000, 73.795000)">
            <path d="M0.46379,0.30526 L39.54584,23.8253" id="Stroke-27" stroke="#000000" stroke-width="0.79701"></path>
            <polyline id="Fill-28" fill="#000000" points="41.766988 25.1620037 39.2825152 21.2463694 39.54584 23.8253 37.1437976 24.8001924"></polyline>
        </g>
        <g id="Group-32" transform="translate(8.000000, 74.795000)">
            <path d="M0.35202,0.59636 L42.22273,50.99288" id="Stroke-30" stroke="#000000" stroke-width="0.79701"></path>
            <polyline id="Fill-31" fill="#000000" points="43.8786732 52.9860392 42.8236891 48.4721997 42.22272 50.99286 39.6346147 51.1217146"></polyline>
        </g>
        <g id="Group-35" transform="translate(9.000000, 43.795000)">
            <path d="M0.46379,0.19005 L39.54584,23.71012" id="Stroke-33" stroke="#000000" stroke-width="0.79701"></path>
            <polyline id="Fill-34" fill="#000000" points="41.766988 25.0468237 39.2825152 21.1311894 39.54584 23.71012 37.1437976 24.6850124"></polyline>
        </g>
        <g id="Group-38" transform="translate(10.000000, 38.795000)">
            <path d="M0.18982,2.5608 L37.45068,2.5608" id="Stroke-36" stroke="#000000" stroke-width="0.79701"></path>
            <polyline id="Fill-37" fill="#000000" points="40.04094 2.5608 35.89653 0.4886 37.45068 2.5608 35.89653 4.633"></polyline>
        </g>
        <g id="Group-41" transform="translate(9.000000, 13.795000)">
            <path d="M0.46379,24.93154 L39.54584,1.41147" id="Stroke-39" stroke="#000000" stroke-width="0.79701"></path>
            <polyline id="Fill-40" fill="#000000" points="41.766988 0.074766327 37.1437976 0.436577607 39.54584 1.41147 39.2825152 3.99040061"></polyline>
        </g>
        <g id="Group-44" transform="translate(8.000000, 44.795000)">
            <path d="M0.35202,0.48118 L42.22273,50.87766" id="Stroke-42" stroke="#000000" stroke-width="0.79701"></path>
            <polyline id="Fill-43" fill="#000000" points="43.8786732 52.8708192 42.8236891 48.3569797 42.22272 50.87764 39.6346147 51.0064946"></polyline>
        </g>
        <g id="Group-47" transform="translate(7.000000, 45.795000)">
            <path d="M0.56753,0.0249 L44.40611,79.17272" id="Stroke-45" stroke="#000000" stroke-width="0.79701"></path>
            <polyline id="Fill-46" fill="#000000" points="45.6632927 81.4422858 45.4674649 76.8052115 44.40611 79.1727 41.8361417 78.816696"></polyline>
        </g>
        <g id="Group-50" transform="translate(8.000000, 14.795000)">
            <path d="M0.35202,0.36596 L42.22273,50.76247" id="Stroke-48" stroke="#000000" stroke-width="0.79701"></path>
            <polyline id="Fill-49" fill="#000000" points="43.8786732 52.7556392 42.8236891 48.2417997 42.22272 50.76246 39.6346147 50.8913146"></polyline>
        </g>
        <g id="Group-53" transform="translate(9.000000, 13.795000)">
            <path d="M0.46379,0.07485 L39.54584,23.5949" id="Stroke-51" stroke="#000000" stroke-width="0.79701"></path>
            <polyline id="Fill-52" fill="#000000" points="41.766988 24.9316037 39.2825152 21.0159694 39.54584 23.5949 37.1437976 24.5697924"></polyline>
        </g>
        <g id="Group-56" transform="translate(10.000000, 8.795000)">
            <path d="M0.18982,2.44559 L37.45068,2.44559" id="Stroke-54" stroke="#000000" stroke-width="0.79701"></path>
            <polyline id="Fill-55" fill="#000000" points="40.04094 2.44559 35.89653 0.37339 37.45068 2.44559 35.89653 4.51779"></polyline>
        </g>
        <g id="Group-59" transform="translate(7.000000, 14.795000)">
            <path d="M0.56753,0.90969 L44.40611,80.0575" id="Stroke-57" stroke="#000000" stroke-width="0.79701"></path>
            <polyline id="Fill-58" fill="#000000" points="45.6632927 82.3270658 45.4674649 77.6899915 44.40611 80.05748 41.8361417 79.701476"></polyline>
        </g>
        <g id="Group-62" transform="translate(7.000000, 15.795000)">
            <path d="M0.05328,0.15955 L45.18211,108.79583" id="Stroke-60" stroke="#000000" stroke-width="0.79701"></path>
            <polyline id="Fill-61" fill="#000000" points="46.1776505 111.192448 46.502091 106.561403 45.18211 108.79581 42.6674849 108.154262"></polyline>
        </g>
        <g id="Group-65" transform="translate(9.000000, 73.795000)">
            <path d="M0.46379,25.16195 L39.54584,1.64188" id="Stroke-63" stroke="#000000" stroke-width="0.79701"></path>
            <polyline id="Fill-64" fill="#000000" points="41.766988 0.305176327 37.1437976 0.666987607 39.54584 1.64188 39.2825152 4.22081061"></polyline>
        </g>
        <g id="Group-68" transform="translate(8.000000, 44.795000)">
            <path d="M0.35202,52.87082 L42.22273,2.47434" id="Stroke-66" stroke="#000000" stroke-width="0.79701"></path>
            <polyline id="Fill-67" fill="#000000" points="43.8786732 0.481180833 39.6346147 2.34550542 42.22272 2.47436 42.8236891 4.99502034"></polyline>
        </g>
        <g id="Group-71" transform="translate(7.000000, 14.795000)">
            <path d="M0.56753,82.3271 L44.40611,3.17928" id="Stroke-69" stroke="#000000" stroke-width="0.79701"></path>
            <polyline id="Fill-70" fill="#000000" points="45.6632927 0.909714188 41.8361417 3.53530396 44.40611 3.1793 45.4674649 5.5467885"></polyline>
        </g>
        <g id="Group-74" transform="translate(10.000000, 98.795000)">
            <path d="M0.18982,2.7912 L37.45068,2.7912" id="Stroke-72" stroke="#000000" stroke-width="0.79701"></path>
            <polyline id="Fill-73" fill="#000000" points="40.04094 2.7912 35.89653 0.719 37.45068 2.7912 35.89653 4.8634"></polyline>
        </g>
        <g id="Group-77" transform="translate(9.000000, 103.795000)">
            <path d="M0.46379,0.42046 L39.54584,23.94053" id="Stroke-75" stroke="#000000" stroke-width="0.79701"></path>
            <polyline id="Fill-76" fill="#000000" points="41.766988 25.2772337 39.2825152 21.3615994 39.54584 23.94053 37.1437976 24.9154224"></polyline>
        </g>
        <g id="Group-80" transform="translate(8.000000, 74.795000)">
            <path d="M0.35202,52.98604 L42.22273,2.58953" id="Stroke-78" stroke="#000000" stroke-width="0.79701"></path>
            <polyline id="Fill-79" fill="#000000" points="43.8786732 0.596360833 39.6346147 2.46068542 42.22272 2.58954 42.8236891 5.11020034"></polyline>
        </g>
        <g id="Group-83" transform="translate(7.000000, 45.795000)">
            <path d="M0.56753,81.44231 L44.40611,2.2945" id="Stroke-81" stroke="#000000" stroke-width="0.79701"></path>
            <polyline id="Fill-82" fill="#000000" points="45.6632927 0.024934188 41.8361417 2.65052396 44.40611 2.29452 45.4674649 4.6620085"></polyline>
        </g>
        <g id="Group-86" transform="translate(7.000000, 15.795000)">
            <path d="M0.05328,111.19245 L45.18211,2.55617" id="Stroke-84" stroke="#000000" stroke-width="0.79701"></path>
            <polyline id="Fill-85" fill="#000000" points="46.1776505 0.159551935 42.6674849 3.19773794 45.18211 2.55619 46.502091 4.79059664"></polyline>
        </g>
        <g id="Group-89" transform="translate(9.000000, 103.795000)">
            <path d="M0.46379,25.27715 L39.54584,1.7571" id="Stroke-87" stroke="#000000" stroke-width="0.79701"></path>
            <polyline id="Fill-88" fill="#000000" points="41.766988 0.420396327 37.1437976 0.782207607 39.54584 1.7571 39.2825152 4.33603061"></polyline>
        </g>
        <g id="Group-92" transform="translate(10.000000, 128.795000)">
            <path d="M0.18982,2.90641 L37.45068,2.90641" id="Stroke-90" stroke="#000000" stroke-width="0.79701"></path>
            <polyline id="Fill-91" fill="#000000" points="40.04094 2.90641 35.89653 0.83421 37.45068 2.90641 35.89653 4.97861"></polyline>
        </g>
        <g id="Group-95" transform="translate(60.000000, 68.795000)">
            <path d="M0.23059,2.676 L37.49147,2.676" id="Stroke-93" stroke="#000000" stroke-width="0.79701"></path>
            <polyline id="Fill-94" fill="#000000" points="40.08173 2.676 35.93732 0.6038 37.49147 2.676 35.93732 4.7482"></polyline>
        </g>
        <g id="Group-98" transform="translate(59.000000, 43.795000)">
            <path d="M0.50456,25.04674 L39.58661,1.5267" id="Stroke-96" stroke="#000000" stroke-width="0.79701"></path>
            <polyline id="Fill-97" fill="#000000" points="41.807758 0.189996327 37.1845676 0.551807608 39.58661 1.5267 39.3232852 4.10563061"></polyline>
        </g>
        <g id="Group-101" transform="translate(58.000000, 14.795000)">
            <path d="M0.39279,52.75564 L42.26352,2.35912" id="Stroke-99" stroke="#000000" stroke-width="0.79701"></path>
            <polyline id="Fill-100" fill="#000000" points="43.9194532 0.365960833 39.6753947 2.23028542 42.2635 2.35914 42.8644691 4.87980034"></polyline>
        </g>
        <g id="Group-104" transform="translate(59.000000, 73.795000)">
            <path d="M0.50456,0.30526 L39.58661,23.8253" id="Stroke-102" stroke="#000000" stroke-width="0.79701"></path>
            <polyline id="Fill-103" fill="#000000" points="41.807758 25.1620037 39.3232852 21.2463694 39.58661 23.8253 37.1845676 24.8001924"></polyline>
        </g>
        <g id="Group-107" transform="translate(58.000000, 74.795000)">
            <path d="M0.39279,0.59636 L42.26352,50.99288" id="Stroke-105" stroke="#000000" stroke-width="0.79701"></path>
            <polyline id="Fill-106" fill="#000000" points="43.9194532 52.9860392 42.8644691 48.4721997 42.2635 50.99286 39.6753947 51.1217146"></polyline>
        </g>
        <g id="Group-110" transform="translate(59.000000, 43.795000)">
            <path d="M0.50456,0.19005 L39.58661,23.71012" id="Stroke-108" stroke="#000000" stroke-width="0.79701"></path>
            <polyline id="Fill-109" fill="#000000" points="41.807758 25.0468237 39.3232852 21.1311894 39.58661 23.71012 37.1845676 24.6850124"></polyline>
        </g>
        <g id="Group-113" transform="translate(60.000000, 38.795000)">
            <path d="M0.23059,2.5608 L37.49147,2.5608" id="Stroke-111" stroke="#000000" stroke-width="0.79701"></path>
            <polyline id="Fill-112" fill="#000000" points="40.08173 2.5608 35.93732 0.4886 37.49147 2.5608 35.93732 4.633"></polyline>
        </g>
        <g id="Group-116" transform="translate(59.000000, 13.795000)">
            <path d="M0.50456,24.93154 L39.58661,1.41147" id="Stroke-114" stroke="#000000" stroke-width="0.79701"></path>
            <polyline id="Fill-115" fill="#000000" points="41.807758 0.074766327 37.1845676 0.436577607 39.58661 1.41147 39.3232852 3.99040061"></polyline>
        </g>
        <g id="Group-119" transform="translate(58.000000, 44.795000)">
            <path d="M0.39279,0.48118 L42.26352,50.87766" id="Stroke-117" stroke="#000000" stroke-width="0.79701"></path>
            <polyline id="Fill-118" fill="#000000" points="43.9194532 52.8708192 42.8644691 48.3569797 42.2635 50.87764 39.6753947 51.0064946"></polyline>
        </g>
        <g id="Group-122" transform="translate(57.000000, 45.795000)">
            <path d="M0.6083,0.0249 L44.4469,79.17272" id="Stroke-120" stroke="#000000" stroke-width="0.79701"></path>
            <polyline id="Fill-121" fill="#000000" points="45.7040827 81.4422858 45.5082549 76.8052115 44.4469 79.1727 41.8769317 78.816696"></polyline>
        </g>
        <g id="Group-125" transform="translate(58.000000, 14.795000)">
            <path d="M0.39279,0.36596 L42.26352,50.76247" id="Stroke-123" stroke="#000000" stroke-width="0.79701"></path>
            <polyline id="Fill-124" fill="#000000" points="43.9194532 52.7556392 42.8644691 48.2417997 42.2635 50.76246 39.6753947 50.8913146"></polyline>
        </g>
        <g id="Group-128" transform="translate(59.000000, 13.795000)">
            <path d="M0.50456,0.07485 L39.58661,23.5949" id="Stroke-126" stroke="#000000" stroke-width="0.79701"></path>
            <polyline id="Fill-127" fill="#000000" points="41.807758 24.9316037 39.3232852 21.0159694 39.58661 23.5949 37.1845676 24.5697924"></polyline>
        </g>
        <g id="Group-131" transform="translate(60.000000, 8.795000)">
            <path d="M0.23059,2.44559 L37.49147,2.44559" id="Stroke-129" stroke="#000000" stroke-width="0.79701"></path>
            <polyline id="Fill-130" fill="#000000" points="40.08173 2.44559 35.93732 0.37339 37.49147 2.44559 35.93732 4.51779"></polyline>
        </g>
        <g id="Group-134" transform="translate(57.000000, 14.795000)">
            <path d="M0.6083,0.90969 L44.4469,80.0575" id="Stroke-132" stroke="#000000" stroke-width="0.79701"></path>
            <polyline id="Fill-133" fill="#000000" points="45.7040827 82.3270658 45.5082549 77.6899915 44.4469 80.05748 41.8769317 79.701476"></polyline>
        </g>
        <g id="Group-137" transform="translate(57.000000, 15.795000)">
            <path d="M0.09405,0.15955 L45.2229,108.79583" id="Stroke-135" stroke="#000000" stroke-width="0.79701"></path>
            <polyline id="Fill-136" fill="#000000" points="46.2184405 111.192448 46.542881 106.561403 45.2229 108.79581 42.7082749 108.154262"></polyline>
        </g>
        <g id="Group-140" transform="translate(59.000000, 73.795000)">
            <path d="M0.50456,25.16195 L39.58661,1.64188" id="Stroke-138" stroke="#000000" stroke-width="0.79701"></path>
            <polyline id="Fill-139" fill="#000000" points="41.807758 0.305176327 37.1845676 0.666987607 39.58661 1.64188 39.3232852 4.22081061"></polyline>
        </g>
        <g id="Group-143" transform="translate(58.000000, 44.795000)">
            <path d="M0.39279,52.87082 L42.26352,2.47434" id="Stroke-141" stroke="#000000" stroke-width="0.79701"></path>
            <polyline id="Fill-142" fill="#000000" points="43.9194532 0.481180833 39.6753947 2.34550542 42.2635 2.47436 42.8644691 4.99502034"></polyline>
        </g>
        <g id="Group-146" transform="translate(57.000000, 14.795000)">
            <path d="M0.6083,82.3271 L44.4469,3.17928" id="Stroke-144" stroke="#000000" stroke-width="0.79701"></path>
            <polyline id="Fill-145" fill="#000000" points="45.7040827 0.909714188 41.8769317 3.53530396 44.4469 3.1793 45.5082549 5.5467885"></polyline>
        </g>
        <g id="Group-149" transform="translate(60.000000, 98.795000)">
            <path d="M0.23059,2.7912 L37.49147,2.7912" id="Stroke-147" stroke="#000000" stroke-width="0.79701"></path>
            <polyline id="Fill-148" fill="#000000" points="40.08173 2.7912 35.93732 0.719 37.49147 2.7912 35.93732 4.8634"></polyline>
        </g>
        <g id="Group-152" transform="translate(59.000000, 103.795000)">
            <path d="M0.50456,0.42046 L39.58661,23.94053" id="Stroke-150" stroke="#000000" stroke-width="0.79701"></path>
            <polyline id="Fill-151" fill="#000000" points="41.807758 25.2772337 39.3232852 21.3615994 39.58661 23.94053 37.1845676 24.9154224"></polyline>
        </g>
        <g id="Group-155" transform="translate(58.000000, 74.795000)">
            <path d="M0.39279,52.98604 L42.26352,2.58953" id="Stroke-153" stroke="#000000" stroke-width="0.79701"></path>
            <polyline id="Fill-154" fill="#000000" points="43.9194532 0.596360833 39.6753947 2.46068542 42.2635 2.58954 42.8644691 5.11020034"></polyline>
        </g>
        <g id="Group-158" transform="translate(57.000000, 45.795000)">
            <path d="M0.6083,81.44231 L44.4469,2.2945" id="Stroke-156" stroke="#000000" stroke-width="0.79701"></path>
            <polyline id="Fill-157" fill="#000000" points="45.7040827 0.024934188 41.8769317 2.65052396 44.4469 2.29452 45.5082549 4.6620085"></polyline>
        </g>
        <g id="Group-161" transform="translate(57.000000, 15.795000)">
            <path d="M0.09405,111.19245 L45.2229,2.55617" id="Stroke-159" stroke="#000000" stroke-width="0.79701"></path>
            <polyline id="Fill-160" fill="#000000" points="46.2184405 0.159551935 42.7082749 3.19773794 45.2229 2.55619 46.542881 4.79059664"></polyline>
        </g>
        <g id="Group-164" transform="translate(59.000000, 103.795000)">
            <path d="M0.50456,25.27715 L39.58661,1.7571" id="Stroke-162" stroke="#000000" stroke-width="0.79701"></path>
            <polyline id="Fill-163" fill="#000000" points="41.807758 0.420396327 37.1845676 0.782207607 39.58661 1.7571 39.3232852 4.33603061"></polyline>
        </g>
        <g id="Group-167" transform="translate(60.000000, 128.795000)">
            <path d="M0.23059,2.90641 L37.49147,2.90641" id="Stroke-165" stroke="#000000" stroke-width="0.79701"></path>
            <polyline id="Fill-166" fill="#000000" points="40.08173 2.90641 35.93732 0.83421 37.49147 2.90641 35.93732 4.97861"></polyline>
        </g>
        <g id="Group-170" transform="translate(109.000000, 43.795000)">
            <path d="M0.54533,25.04674 L39.6274,1.5267" id="Stroke-168" stroke="#000000" stroke-width="0.79701"></path>
            <polyline id="Fill-169" fill="#000000" points="41.8485479 0.189996327 37.2253576 0.551807608 39.6274 1.5267 39.3640752 4.10563061"></polyline>
        </g>
        <g id="Group-173" transform="translate(109.000000, 73.795000)">
            <path d="M0.54533,0.30526 L39.6274,23.8253" id="Stroke-171" stroke="#000000" stroke-width="0.79701"></path>
            <polyline id="Fill-172" fill="#000000" points="41.8485479 25.1620037 39.3640752 21.2463694 39.6274 23.8253 37.2253576 24.8001924"></polyline>
        </g>
        <g id="Group-176" transform="translate(110.000000, 38.795000)">
            <path d="M0.27138,2.5608 L37.53224,2.5608" id="Stroke-174" stroke="#000000" stroke-width="0.79701"></path>
            <polyline id="Fill-175" fill="#000000" points="40.1225 2.5608 35.97809 0.4886 37.53224 2.5608 35.97809 4.633"></polyline>
        </g>
        <g id="Group-179" transform="translate(108.000000, 44.795000)">
            <path d="M0.43358,0.48118 L42.30429,50.87766" id="Stroke-177" stroke="#000000" stroke-width="0.79701"></path>
            <polyline id="Fill-178" fill="#000000" points="43.9602232 52.8708192 42.9052391 48.3569797 42.30427 50.87764 39.7161647 51.0064946"></polyline>
        </g>
        <g id="Group-182" transform="translate(109.000000, 13.795000)">
            <path d="M0.54533,0.07485 L39.6274,23.5949" id="Stroke-180" stroke="#000000" stroke-width="0.79701"></path>
            <polyline id="Fill-181" fill="#000000" points="41.8485479 24.9316037 39.3640752 21.0159694 39.6274 23.5949 37.2253576 24.5697924"></polyline>
        </g>
        <g id="Group-185" transform="translate(107.000000, 14.795000)">
            <path d="M0.6491,0.90969 L44.48767,80.0575" id="Stroke-183" stroke="#000000" stroke-width="0.79701"></path>
            <polyline id="Fill-184" fill="#000000" points="45.7448527 82.3270658 45.5490249 77.6899915 44.48767 80.05748 41.9177017 79.701476"></polyline>
        </g>
        <g id="Group-188" transform="translate(108.000000, 44.795000)">
            <path d="M0.43358,52.87082 L42.30429,2.47434" id="Stroke-186" stroke="#000000" stroke-width="0.79701"></path>
            <polyline id="Fill-187" fill="#000000" points="43.9602232 0.481180833 39.7161647 2.34550542 42.30427 2.47436 42.9052391 4.99502034"></polyline>
        </g>
        <g id="Group-191" transform="translate(110.000000, 98.795000)">
            <path d="M0.27138,2.7912 L37.53224,2.7912" id="Stroke-189" stroke="#000000" stroke-width="0.79701"></path>
            <polyline id="Fill-190" fill="#000000" points="40.1225 2.7912 35.97809 0.719 37.53224 2.7912 35.97809 4.8634"></polyline>
        </g>
        <g id="Group-194" transform="translate(107.000000, 45.795000)">
            <path d="M0.6491,81.44231 L44.48767,2.2945" id="Stroke-192" stroke="#000000" stroke-width="0.79701"></path>
            <polyline id="Fill-193" fill="#000000" points="45.7448527 0.024934188 41.9177017 2.65052396 44.48767 2.29452 45.5490249 4.6620085"></polyline>
        </g>
        <g id="Group-197" transform="translate(109.000000, 103.795000)">
            <path d="M0.54533,25.27715 L39.6274,1.7571" id="Stroke-195" stroke="#000000" stroke-width="0.79701"></path>
            <polyline id="Fill-196" fill="#000000" points="41.8485479 0.420396327 37.2253576 0.782207607 39.6274 1.7571 39.3640752 4.33603061"></polyline>
        </g>
        <g id="Group-202" transform="translate(161.000000, 53.795000)">
            <g id="Group-201" transform="translate(0.000000, 15.000000)">
                <path d="M0.00244,2.676 L84.86894,2.676" id="Stroke-198" stroke="#000000" stroke-width="2.19182" stroke-dasharray="2.98883,2.98883"></path>
                <path d="M0.00244,2.676 L84.86894,2.676" id="Stroke-199" stroke="#FFFFFF" stroke-width="0.59776" stroke-dasharray="2.98883,2.98883"></path>
                <polyline id="Fill-200" fill="#000000" points="87.87771 2.676 83.06369 0.26899 84.86894 2.676 83.06369 5.08301"></polyline>
            </g>
            <text id="dropout" font-family="LucidaGrande, Lucida Grande" font-size="9.9626" font-weight="normal" fill="#000000">
                <tspan x="26.627" y="10.2857035">dro</tspan>
                <tspan x="43.0935044" y="10.2857035" letter-spacing="0.2789528">p</tspan>
                <tspan x="49.6428632" y="10.2857035">out</tspan>
            </text>
        </g>
        <g id="Group-205" transform="translate(260.000000, 65.795000)">
            <path d="M9.50427,5.676 C9.50427,3.08228 7.40167,0.9797 4.80795,0.9797 C2.21422,0.9797 0.11163,3.08228 0.11163,5.676 C0.11163,8.26972 2.21422,10.3723 4.80795,10.3723 C7.40167,10.3723 9.50427,8.26972 9.50427,5.676 Z" id="Fill-203" fill="#FFE6E6"></path>
            <path d="M9.50427,5.676 C9.50427,3.08228 7.40167,0.9797 4.80795,0.9797 C2.21422,0.9797 0.11163,3.08228 0.11163,5.676 C0.11163,8.26972 2.21422,10.3723 4.80795,10.3723 C7.40167,10.3723 9.50427,8.26972 9.50427,5.676 Z" id="Stroke-204" stroke="#FF0000" stroke-width="0.79701"></path>
        </g>
        <g id="Group-208" transform="translate(260.000000, 35.795000)">
            <path d="M9.50427,5.5608 C9.50427,2.96706 7.40167,0.86448 4.80795,0.86448 C2.21422,0.86448 0.11163,2.96706 0.11163,5.5608 C0.11163,8.15453 2.21422,10.25712 4.80795,10.25712 C7.40167,10.25712 9.50427,8.15453 9.50427,5.5608 Z" id="Fill-206" fill="#FFE6E6"></path>
            <path d="M9.50427,5.5608 C9.50427,2.96706 7.40167,0.86448 4.80795,0.86448 C2.21422,0.86448 0.11163,2.96706 0.11163,5.5608 C0.11163,8.15453 2.21422,10.25712 4.80795,10.25712 C7.40167,10.25712 9.50427,8.15453 9.50427,5.5608 Z" id="Stroke-207" stroke="#FF0000" stroke-width="0.79701"></path>
        </g>
        <path d="M269.50427,11.24059 C269.50427,8.64686 267.40167,6.54427 264.80795,6.54427 C262.21422,6.54427 260.11163,8.64686 260.11163,11.24059 C260.11163,13.83431 262.21422,15.9369 264.80795,15.9369 C267.40167,15.9369 269.50427,13.83431 269.50427,11.24059 Z" id="Stroke-209" stroke="#000000" stroke-width="0.79701"></path>
        <path d="M269.50427,101.5862 C269.50427,98.99247 267.40167,96.88988 264.80795,96.88988 C262.21422,96.88988 260.11163,98.99247 260.11163,101.5862 C260.11163,104.17994 262.21422,106.28252 264.80795,106.28252 C267.40167,106.28252 269.50427,104.17994 269.50427,101.5862 Z" id="Stroke-210" stroke="#000000" stroke-width="0.79701"></path>
        <path d="M269.50427,131.70141 C269.50427,129.10769 267.40167,127.0051 264.80795,127.0051 C262.21422,127.0051 260.11163,129.10769 260.11163,131.70141 C260.11163,134.29514 262.21422,136.39773 264.80795,136.39773 C267.40167,136.39773 269.50427,134.29514 269.50427,131.70141 Z" id="Stroke-211" stroke="#000000" stroke-width="0.79701"></path>
        <text id="-" font-family="LucidaGrande, Lucida Grande" font-size="20.6625" font-weight="normal"></text>
        <text id="-" font-family="LucidaGrande, Lucida Grande" font-size="20.6625" font-weight="normal"></text>
        <g id="Group-214" transform="translate(310.000000, 65.795000)">
            <path d="M9.54504,5.676 C9.54504,3.08228 7.44246,0.9797 4.84872,0.9797 C2.25499,0.9797 0.1524,3.08228 0.1524,5.676 C0.1524,8.26972 2.25499,10.3723 4.84872,10.3723 C7.44246,10.3723 9.54504,8.26972 9.54504,5.676 Z" id="Fill-212" fill="#FFE6E6"></path>
            <path d="M9.54504,5.676 C9.54504,3.08228 7.44246,0.9797 4.84872,0.9797 C2.25499,0.9797 0.1524,3.08228 0.1524,5.676 C0.1524,8.26972 2.25499,10.3723 4.84872,10.3723 C7.44246,10.3723 9.54504,8.26972 9.54504,5.676 Z" id="Stroke-213" stroke="#FF0000" stroke-width="0.79701"></path>
        </g>
        <path d="M319.54504,41.3558 C319.54504,38.76206 317.44246,36.65948 314.84872,36.65948 C312.25499,36.65948 310.1524,38.76206 310.1524,41.3558 C310.1524,43.94953 312.25499,46.05212 314.84872,46.05212 C317.44246,46.05212 319.54504,43.94953 319.54504,41.3558 Z" id="Stroke-215" stroke="#000000" stroke-width="0.79701"></path>
        <g id="Group-218" transform="translate(310.000000, 5.795000)">
            <path d="M9.54504,5.44559 C9.54504,2.85186 7.44246,0.74927 4.84872,0.74927 C2.25499,0.74927 0.1524,2.85186 0.1524,5.44559 C0.1524,8.03931 2.25499,10.1419 4.84872,10.1419 C7.44246,10.1419 9.54504,8.03931 9.54504,5.44559 Z" id="Fill-216" fill="#FFE6E6"></path>
            <path d="M9.54504,5.44559 C9.54504,2.85186 7.44246,0.74927 4.84872,0.74927 C2.25499,0.74927 0.1524,2.85186 0.1524,5.44559 C0.1524,8.03931 2.25499,10.1419 4.84872,10.1419 C7.44246,10.1419 9.54504,8.03931 9.54504,5.44559 Z" id="Stroke-217" stroke="#FF0000" stroke-width="0.79701"></path>
        </g>
        <g id="Group-221" transform="translate(310.000000, 96.795000)">
            <path d="M9.54504,4.7912 C9.54504,2.19747 7.44246,0.09488 4.84872,0.09488 C2.25499,0.09488 0.1524,2.19747 0.1524,4.7912 C0.1524,7.38494 2.25499,9.48752 4.84872,9.48752 C7.44246,9.48752 9.54504,7.38494 9.54504,4.7912 Z" id="Fill-219" fill="#FFE6E6"></path>
            <path d="M9.54504,4.7912 C9.54504,2.19747 7.44246,0.09488 4.84872,0.09488 C2.25499,0.09488 0.1524,2.19747 0.1524,4.7912 C0.1524,7.38494 2.25499,9.48752 4.84872,9.48752 C7.44246,9.48752 9.54504,7.38494 9.54504,4.7912 Z" id="Stroke-220" stroke="#FF0000" stroke-width="0.79701"></path>
        </g>
        <path d="M319.54504,131.70141 C319.54504,129.10769 317.44246,127.0051 314.84872,127.0051 C312.25499,127.0051 310.1524,129.10769 310.1524,131.70141 C310.1524,134.29514 312.25499,136.39773 314.84872,136.39773 C317.44246,136.39773 319.54504,134.29514 319.54504,131.70141 Z" id="Stroke-222" stroke="#000000" stroke-width="0.79701"></path>
        <text id="-" font-family="LucidaGrande, Lucida Grande" font-size="20.6625" font-weight="normal"></text>
        <text id="-" font-family="LucidaGrande, Lucida Grande" font-size="20.6625" font-weight="normal"></text>
        <text id="-" font-family="LucidaGrande, Lucida Grande" font-size="20.6625" font-weight="normal"></text>
        <path d="M369.58581,71.471 C369.58581,68.87728 367.48323,66.7747 364.88951,66.7747 C362.29578,66.7747 360.19319,68.87728 360.19319,71.471 C360.19319,74.06472 362.29578,76.1673 364.88951,76.1673 C367.48323,76.1673 369.58581,74.06472 369.58581,71.471 Z" id="Stroke-223" stroke="#000000" stroke-width="0.79701"></path>
        <g id="Group-226" transform="translate(360.000000, 35.795000)">
            <path d="M9.58581,5.5608 C9.58581,2.96706 7.48323,0.86448 4.88951,0.86448 C2.29578,0.86448 0.19319,2.96706 0.19319,5.5608 C0.19319,8.15453 2.29578,10.25712 4.88951,10.25712 C7.48323,10.25712 9.58581,8.15453 9.58581,5.5608 Z" id="Fill-224" fill="#FFE6E6"></path>
            <path d="M9.58581,5.5608 C9.58581,2.96706 7.48323,0.86448 4.88951,0.86448 C2.29578,0.86448 0.19319,2.96706 0.19319,5.5608 C0.19319,8.15453 2.29578,10.25712 4.88951,10.25712 C7.48323,10.25712 9.58581,8.15453 9.58581,5.5608 Z" id="Stroke-225" stroke="#FF0000" stroke-width="0.79701"></path>
        </g>
        <path d="M369.58581,11.24059 C369.58581,8.64686 367.48323,6.54427 364.88951,6.54427 C362.29578,6.54427 360.19319,8.64686 360.19319,11.24059 C360.19319,13.83431 362.29578,15.9369 364.88951,15.9369 C367.48323,15.9369 369.58581,13.83431 369.58581,11.24059 Z" id="Stroke-227" stroke="#000000" stroke-width="0.79701"></path>
        <g id="Group-230" transform="translate(360.000000, 96.795000)">
            <path d="M9.58581,4.7912 C9.58581,2.19747 7.48323,0.09488 4.88951,0.09488 C2.29578,0.09488 0.19319,2.19747 0.19319,4.7912 C0.19319,7.38494 2.29578,9.48752 4.88951,9.48752 C7.48323,9.48752 9.58581,7.38494 9.58581,4.7912 Z" id="Fill-228" fill="#FFE6E6"></path>
            <path d="M9.58581,4.7912 C9.58581,2.19747 7.48323,0.09488 4.88951,0.09488 C2.29578,0.09488 0.19319,2.19747 0.19319,4.7912 C0.19319,7.38494 2.29578,9.48752 4.88951,9.48752 C7.48323,9.48752 9.58581,7.38494 9.58581,4.7912 Z" id="Stroke-229" stroke="#FF0000" stroke-width="0.79701"></path>
        </g>
        <path d="M369.58581,131.70141 C369.58581,129.10769 367.48323,127.0051 364.88951,127.0051 C362.29578,127.0051 360.19319,129.10769 360.19319,131.70141 C360.19319,134.29514 362.29578,136.39773 364.88951,136.39773 C367.48323,136.39773 369.58581,134.29514 369.58581,131.70141 Z" id="Stroke-231" stroke="#000000" stroke-width="0.79701"></path>
        <text id="-" font-family="LucidaGrande, Lucida Grande" font-size="20.6625" font-weight="normal"></text>
        <text id="-" font-family="LucidaGrande, Lucida Grande" font-size="20.6625" font-weight="normal"></text>
        <path d="M419.6266,41.3558 C419.6266,38.76206 417.52402,36.65948 414.93028,36.65948 C412.33655,36.65948 410.23396,38.76206 410.23396,41.3558 C410.23396,43.94953 412.33655,46.05212 414.93028,46.05212 C417.52402,46.05212 419.6266,43.94953 419.6266,41.3558 Z" id="Stroke-232" stroke="#000000" stroke-width="0.79701"></path>
        <path d="M419.6266,101.5862 C419.6266,98.99247 417.52402,96.88988 414.93028,96.88988 C412.33655,96.88988 410.23396,98.99247 410.23396,101.5862 C410.23396,104.17994 412.33655,106.28252 414.93028,106.28252 C417.52402,106.28252 419.6266,104.17994 419.6266,101.5862 Z" id="Stroke-233" stroke="#000000" stroke-width="0.79701"></path>
        <g id="Group-236" transform="translate(269.000000, 13.795000)">
            <path d="M0.17674,0.07485 L39.25879,23.5949" id="Stroke-234" stroke="#000000" stroke-width="0.79701"></path>
            <polyline id="Fill-235" fill="#000000" points="41.479938 24.9316037 38.9954652 21.0159694 39.25879 23.5949 36.8567476 24.5697924"></polyline>
        </g>
        <g id="Group-239" transform="translate(266.000000, 15.795000)">
            <path d="M0.76623,0.15955 L45.89508,108.79583" id="Stroke-237" stroke="#000000" stroke-width="0.79701"></path>
            <polyline id="Fill-238" fill="#000000" points="46.8906205 111.192448 47.215061 106.561403 45.89508 108.79581 43.3804549 108.154262"></polyline>
        </g>
        <g id="Group-242" transform="translate(268.000000, 44.795000)">
            <path d="M0.06497,52.87082 L41.93568,2.47434" id="Stroke-240" stroke="#000000" stroke-width="0.79701"></path>
            <polyline id="Fill-241" fill="#000000" points="43.5916232 0.481180833 39.3475647 2.34550542 41.93567 2.47436 42.5366391 4.99502034"></polyline>
        </g>
        <g id="Group-245" transform="translate(269.000000, 103.795000)">
            <path d="M0.17674,0.42046 L39.25879,23.94053" id="Stroke-243" stroke="#000000" stroke-width="0.79701"></path>
            <polyline id="Fill-244" fill="#000000" points="41.479938 25.2772337 38.9954652 21.3615994 39.25879 23.94053 36.8567476 24.9154224"></polyline>
        </g>
        <g id="Group-248" transform="translate(267.000000, 45.795000)">
            <path d="M0.28049,81.44231 L44.11908,2.2945" id="Stroke-246" stroke="#000000" stroke-width="0.79701"></path>
            <polyline id="Fill-247" fill="#000000" points="45.3762627 0.024934188 41.5491117 2.65052396 44.11908 2.29452 45.1804349 4.6620085"></polyline>
        </g>
        <g id="Group-251" transform="translate(269.000000, 128.795000)">
            <path d="M0.90277,2.90641 L38.16363,2.90641" id="Stroke-249" stroke="#000000" stroke-width="0.79701"></path>
            <polyline id="Fill-250" fill="#000000" points="40.75389 2.90641 36.60948 0.83421 38.16363 2.90641 36.60948 4.97861"></polyline>
        </g>
        <g id="Group-254" transform="translate(319.000000, 43.795000)">
            <path d="M0.21751,0.19005 L39.29957,23.71012" id="Stroke-252" stroke="#000000" stroke-width="0.79701"></path>
            <polyline id="Fill-253" fill="#000000" points="41.520718 25.0468237 39.0362452 21.1311894 39.29957 23.71012 36.8975276 24.6850124"></polyline>
        </g>
        <g id="Group-257" transform="translate(319.000000, 13.795000)">
            <path d="M0.21751,24.93154 L39.29957,1.41147" id="Stroke-255" stroke="#000000" stroke-width="0.79701"></path>
            <polyline id="Fill-256" fill="#000000" points="41.520718 0.074766327 36.8975276 0.436577607 39.29957 1.41147 39.0362452 3.99040061"></polyline>
        </g>
        <g id="Group-260" transform="translate(317.000000, 45.795000)">
            <path d="M0.32127,0.0249 L44.15985,79.17272" id="Stroke-258" stroke="#000000" stroke-width="0.79701"></path>
            <polyline id="Fill-259" fill="#000000" points="45.4170327 81.4422858 45.2212049 76.8052115 44.15985 79.1727 41.5898817 78.816696"></polyline>
        </g>
        <g id="Group-263" transform="translate(318.000000, 74.795000)">
            <path d="M0.10574,52.98604 L41.97647,2.58953" id="Stroke-261" stroke="#000000" stroke-width="0.79701"></path>
            <polyline id="Fill-262" fill="#000000" points="43.6324032 0.596360833 39.3883447 2.46068542 41.97645 2.58954 42.5774191 5.11020034"></polyline>
        </g>
        <g id="Group-266" transform="translate(316.000000, 15.795000)">
            <path d="M0.80702,111.19245 L45.93585,2.55617" id="Stroke-264" stroke="#000000" stroke-width="0.79701"></path>
            <polyline id="Fill-265" fill="#000000" points="46.9313905 0.159551935 43.4212249 3.19773794 45.93585 2.55619 47.255831 4.79059664"></polyline>
        </g>
        <g id="Group-269" transform="translate(319.000000, 128.795000)">
            <path d="M0.94354,2.90641 L38.20442,2.90641" id="Stroke-267" stroke="#000000" stroke-width="0.79701"></path>
            <polyline id="Fill-268" fill="#000000" points="40.79468 2.90641 36.65027 0.83421 38.20442 2.90641 36.65027 4.97861"></polyline>
        </g>
        <g id="Group-272" transform="translate(369.000000, 43.795000)">
            <path d="M0.2583,25.04674 L39.34035,1.5267" id="Stroke-270" stroke="#000000" stroke-width="0.79701"></path>
            <polyline id="Fill-271" fill="#000000" points="41.561498 0.189996327 36.9383076 0.551807608 39.34035 1.5267 39.0770252 4.10563061"></polyline>
        </g>
        <g id="Group-275" transform="translate(369.000000, 73.795000)">
            <path d="M0.2583,0.30526 L39.34035,23.8253" id="Stroke-273" stroke="#000000" stroke-width="0.79701"></path>
            <polyline id="Fill-274" fill="#000000" points="41.561498 25.1620037 39.0770252 21.2463694 39.34035 23.8253 36.9383076 24.8001924"></polyline>
        </g>
        <g id="Group-278" transform="translate(369.000000, 13.795000)">
            <path d="M0.2583,0.07485 L39.34035,23.5949" id="Stroke-276" stroke="#000000" stroke-width="0.79701"></path>
            <polyline id="Fill-277" fill="#000000" points="41.561498 24.9316037 39.0770252 21.0159694 39.34035 23.5949 36.9383076 24.5697924"></polyline>
        </g>
        <g id="Group-281" transform="translate(367.000000, 14.795000)">
            <path d="M0.36204,0.90969 L44.20062,80.0575" id="Stroke-279" stroke="#000000" stroke-width="0.79701"></path>
            <polyline id="Fill-280" fill="#000000" points="45.4578027 82.3270658 45.2619749 77.6899915 44.20062 80.05748 41.6306517 79.701476"></polyline>
        </g>
        <g id="Group-284" transform="translate(367.000000, 45.795000)">
            <path d="M0.36204,81.44231 L44.20062,2.2945" id="Stroke-282" stroke="#000000" stroke-width="0.79701"></path>
            <polyline id="Fill-283" fill="#000000" points="45.4578027 0.024934188 41.6306517 2.65052396 44.20062 2.29452 45.2619749 4.6620085"></polyline>
        </g>
        <g id="Group-287" transform="translate(369.000000, 103.795000)">
            <path d="M0.2583,25.27715 L39.34035,1.7571" id="Stroke-285" stroke="#000000" stroke-width="0.79701"></path>
            <polyline id="Fill-286" fill="#000000" points="41.561498 0.420396327 36.9383076 0.782207607 39.34035 1.7571 39.0770252 4.33603061"></polyline>
        </g>
    </g>
</svg>
